<?xml version="1.0" encoding="UTF-8"?>
<!-- Generator: visioncortex VTracer 0.6.12 -->
<svg version="1.1" xmlns="http://www.w3.org/2000/svg" width="1628" height="525">
<path d="M0 0 C0.35473389 0.11915771 0.35473389 0.11915771 2.14990234 0.72216797 C31.12233453 10.62895832 74.59402614 31.03699487 90.046875 58.88671875 C92.89369583 66.1777432 93.26579536 73.85182314 90.09375 81.12109375 C86.45608893 87.37007581 81.36456391 90.97773939 74.60546875 93.33984375 C67.65065363 95.1020083 61.24053133 94.54014137 54.67578125 91.640625 C50.73038941 89.22155263 47.54024191 86.10410498 44.22583008 82.91137695 C14.56338173 54.44551203 -28.82690175 36.21274086 -70.03125 35.76171875 C-70.77637848 35.75197021 -71.52150696 35.74222168 -72.28921509 35.73217773 C-89.57979657 35.55269151 -106.07021116 36.08073939 -123 40 C-123.82516113 40.18191895 -124.65032227 40.36383789 -125.50048828 40.55126953 C-157.80029536 47.78141238 -189.03733808 63.19834555 -214 85 C-214.76441406 85.65613281 -215.52882812 86.31226562 -216.31640625 86.98828125 C-218.92512398 89.27876054 -221.4692326 91.62359146 -224 94 C-224.52609863 94.49209961 -225.05219727 94.98419922 -225.59423828 95.49121094 C-262.54750785 130.34231645 -283.93801699 179.01882931 -290 229 C-290.13148438 229.97324219 -290.26296875 230.94648438 -290.3984375 231.94921875 C-296.30437328 282.78815243 -279.8204014 338.0494626 -248.5625 378.25 C-243.34823071 384.78504618 -237.77675929 390.96066074 -232 397 C-231.0925 397.94875 -230.185 398.8975 -229.25 399.875 C-223.18688113 406.07591702 -216.89718446 411.74252355 -210 417 C-209.41041504 417.44956055 -208.82083008 417.89912109 -208.21337891 418.36230469 C-173.32026243 444.67689904 -129.82571613 460.79570911 -86 462 C-85.01386719 462.03996094 -84.02773438 462.07992188 -83.01171875 462.12109375 C-65.77908741 462.50106098 -48.6395081 460.38329753 -32 456 C-31.66186279 455.91580811 -31.66186279 455.91580811 -29.95068359 455.48974609 C-3.95161164 448.97592624 20.86356509 436.22400477 41.40234375 419.11328125 C48.67947024 413.19309263 55.19945497 408.58747341 64.9375 409.0625 C73.15314702 410.1579196 78.47083637 414.75790046 83.58984375 421.04296875 C87.87465598 426.98948102 87.71082999 433.92911216 87 441 C82.97913502 457.19834178 59.46735081 469.88036598 46.19848633 477.91894531 C21.80425478 492.23600832 -4.43735672 501.93439602 -32 508 C-33.03205566 508.2273584 -34.06411133 508.4547168 -35.12744141 508.68896484 C-64.03208139 514.71250106 -97.04484002 514.62300205 -126 509 C-126.39968994 508.92773193 -126.39968994 508.92773193 -128.42236328 508.56201172 C-170.53984947 500.90505782 -209.22713745 483.17755117 -243 457 C-243.83917969 456.35546875 -244.67835938 455.7109375 -245.54296875 455.046875 C-252.35407637 449.71926777 -258.74362912 443.96156806 -265 438 C-265.60038086 437.42830078 -266.20076172 436.85660156 -266.81933594 436.26757812 C-275.11803847 428.30733584 -282.76384072 420.14603545 -289.59912109 410.89257812 C-291.09741049 408.86839908 -292.62110413 406.86468837 -294.14453125 404.859375 C-302.45018791 393.79012102 -309.51484622 382.21827435 -316 370 C-316.43940918 369.17725586 -316.87881836 368.35451172 -317.33154297 367.50683594 C-346.84274717 311.38973352 -352.85910558 243.00765658 -334.8125 182.4375 C-321.38067419 139.62309423 -299.16035225 100.35031241 -268 68 C-267.41702148 67.38979004 -266.83404297 66.77958008 -266.23339844 66.15087891 C-258.23372454 57.81274089 -250.02450634 50.17878176 -240.73730469 43.29736328 C-239.01624144 42.01212858 -237.323612 40.6957984 -235.6328125 39.37109375 C-214.03210758 22.68782088 -189.02476917 10.11490021 -163.10839844 1.68994141 C-160.92149845 0.97431156 -158.74635859 0.22839578 -156.5703125 -0.51953125 C-105.69133661 -17.67967147 -50.75500777 -17.10211102 0 0 Z " fill="#15271A" transform="translate(345,13)"/>
<path d="M0 0 C6.19578863 5.52141708 11.61831117 11.1517199 16.421875 17.921875 C16.8247876 18.48156982 17.2277002 19.04126465 17.64282227 19.61791992 C18.7421875 21.2265625 18.7421875 21.2265625 20.296875 24.046875 C19.14048027 27.51605919 18.2863563 28.06324156 15.39453125 30.15625 C14.59080078 30.7433374 13.78707031 31.3304248 12.95898438 31.93530273 C12.10111328 32.54962158 11.24324219 33.16394043 10.359375 33.796875 C9.49505859 34.42215088 8.63074219 35.04742676 7.74023438 35.69165039 C6.03112293 36.92606224 4.31974945 38.15734916 2.60595703 39.38525391 C0.69628463 40.75945885 -1.19760234 42.15016862 -3.08203125 43.55859375 C-3.94699219 44.19410156 -4.81195312 44.82960938 -5.703125 45.484375 C-6.425 46.01933594 -7.146875 46.55429688 -7.890625 47.10546875 C-8.48875 47.41613281 -9.086875 47.72679687 -9.703125 48.046875 C-13.53200397 46.77058201 -14.20328827 45.22463532 -16.453125 41.921875 C-25.02522555 29.93021809 -36.79031119 20.67723678 -51.703125 18.046875 C-69.25227195 15.57280171 -85.45989535 18.9373988 -100.02587891 29.26928711 C-115.07668327 40.6410569 -122.13350034 57.13581357 -125.2578125 75.265625 C-127.9456926 98.08902793 -124.11592799 120.97146842 -110.703125 140.046875 C-99.82680521 152.99225899 -85.50528344 160.19284372 -68.703125 162.046875 C-52.24311971 163.00462903 -37.14753065 159.28355599 -24.203125 148.734375 C-14.1070318 138.8834408 -9.07810787 127.54680648 -5.703125 114.046875 C-24.183125 114.046875 -42.663125 114.046875 -61.703125 114.046875 C-61.72375 108.4575 -61.744375 102.868125 -61.765625 97.109375 C-61.774729 95.34343994 -61.78383301 93.57750488 -61.79321289 91.75805664 C-61.79613214 90.36604895 -61.79868067 88.97404041 -61.80078125 87.58203125 C-61.80589722 86.85302612 -61.81101318 86.124021 -61.81628418 85.3729248 C-61.81659511 83.59717424 -61.76541015 81.82153292 -61.703125 80.046875 C-59.80335412 78.14710412 -57.01373435 78.92674857 -54.48641968 78.92245483 C-54.03938187 78.92425247 -54.03938187 78.92425247 -51.77709961 78.93334961 C-50.84061081 78.93320358 -49.90412201 78.93305756 -48.93925476 78.9329071 C-45.82796961 78.93360663 -42.71674351 78.94140085 -39.60546875 78.94921875 C-37.45455457 78.95108279 -35.30363997 78.95250676 -33.15272522 78.95350647 C-27.47930742 78.95733275 -21.80591505 78.96716398 -16.13250732 78.97821045 C-10.34810734 78.9884222 -4.56370327 78.99300358 1.22070312 78.99804688 C12.57943828 79.00878615 23.93815453 79.02586389 35.296875 79.046875 C35.33179296 83.00518576 35.35260816 86.96345608 35.37109375 90.921875 C35.3810437 92.03046875 35.39099365 93.1390625 35.40124512 94.28125 C35.50285348 123.37332788 26.39204067 151.25894805 6.234375 172.609375 C-14.9285422 193.04354161 -40.58469887 199.56313399 -69.34765625 199.2578125 C-94.86325628 198.64462051 -117.59341326 187.69207705 -135.953125 170.171875 C-158.46305512 146.47970065 -166.29718252 116.07095418 -165.91015625 84.03125 C-165.09556745 52.66708257 -152.51877969 24.6153344 -129.88671875 2.953125 C-125.78052141 -0.85933724 -121.5154692 -4.07686139 -116.703125 -6.953125 C-115.59582031 -7.61957031 -114.48851562 -8.28601563 -113.34765625 -8.97265625 C-78.20998326 -29.2875066 -31.23096103 -26.33198675 0 0 Z " fill="#15281B" transform="translate(766.703125,192.953125)"/>
<path d="M0 0 C19.944375 -0.020625 39.88875 -0.04125 60.4375 -0.0625 C66.74544678 -0.071604 73.05339355 -0.08070801 79.55249023 -0.09008789 C87.2286377 -0.09460449 87.2286377 -0.09460449 90.81703186 -0.09544373 C93.33448971 -0.09698384 95.8519468 -0.10051015 98.36940002 -0.10557556 C102.17263072 -0.11284852 105.97581617 -0.11390757 109.77905273 -0.11352539 C110.90902648 -0.1171235 112.03900023 -0.12072161 113.2032156 -0.12442875 C114.22057324 -0.12305125 115.23793089 -0.12167376 116.28611755 -0.12025452 C117.17749137 -0.12117631 118.06886518 -0.1220981 118.98725033 -0.12304783 C121 0 121 0 122 1 C122.10087212 3.50924153 122.13972032 5.99036384 122.1328125 8.5 C122.13376923 9.25087891 122.13472595 10.00175781 122.13571167 10.77539062 C122.13639338 12.36588627 122.13453972 13.95638467 122.13037109 15.546875 C122.12502267 17.98964655 122.13031634 20.43223421 122.13671875 22.875 C122.13605797 24.41666707 122.1347768 25.95833403 122.1328125 27.5 C122.13483673 28.23541016 122.13686096 28.97082031 122.13894653 29.72851562 C122.11495161 34.88504839 122.11495161 34.88504839 121 36 C118.35261911 36.09511266 115.73140999 36.12555635 113.08374023 36.11352539 C112.25454071 36.11367142 111.42534119 36.11381744 110.5710144 36.1139679 C107.81684802 36.11326851 105.06274839 36.10547493 102.30859375 36.09765625 C100.40430234 36.09579216 98.50001045 36.09436822 96.59571838 36.09336853 C91.57332037 36.08954263 86.55095108 36.07971173 81.52856445 36.06866455 C75.50804488 36.05665775 69.48751572 36.05204853 63.46698761 36.04621124 C54.31130507 36.03650001 45.15568561 36.01734396 36 36 C36 53.49 36 70.98 36 89 C61.08 89 86.16 89 112 89 C112 100.55 112 112.1 112 124 C110.33900226 125.66099774 108.33791741 125.11958781 106.1199789 125.12442875 C105.42094983 125.12083064 104.72192076 125.11723253 104.00170898 125.11352539 C103.25817452 125.11364593 102.51464006 125.11376646 101.74857426 125.11389065 C99.33105079 125.11314159 96.9136035 125.10551371 94.49609375 125.09765625 C93.00785357 125.09618681 91.51961287 125.09516611 90.03137207 125.09460449 C84.50007352 125.08935187 78.96878602 125.07539078 73.4375 125.0625 C61.083125 125.041875 48.72875 125.02125 36 125 C36 152.39 36 179.78 36 208 C24.12 208 12.24 208 0 208 C0 139.36 0 70.72 0 0 Z " fill="#16281B" transform="translate(1179,178)"/>
<path d="M0 0 C3.62721038 2.74925489 6.83186064 5.73770265 10 9 C10.34804688 9.34353516 10.34804688 9.34353516 12.109375 11.08203125 C26.75053823 26.37580447 31.20282183 45.09892277 31.125 65.8125 C31.12886719 66.86115234 31.13273438 67.90980469 31.13671875 68.99023438 C31.13607422 69.49006836 31.13607422 69.49006836 31.1328125 72.01953125 C31.13168457 72.92807861 31.13055664 73.83662598 31.12939453 74.77270508 C31 77 31 77 30 79 C-3.66 79 -37.32 79 -72 79 C-68.09786204 91.68194838 -64.57341204 101.31707374 -53 108 C-42.5638049 112.99207826 -30.2546526 113.7381005 -19.30859375 109.97265625 C-12.27629624 107.00981009 -4.51078157 102.02156314 -1 95 C3.39783691 95.90550765 6.60750438 98.23615863 10.25 100.75 C11.58927022 101.6596991 12.9291094 102.56856116 14.26953125 103.4765625 C14.91100098 103.91258789 15.5524707 104.34861328 16.21337891 104.79785156 C19.42081239 106.95600987 22.70347287 108.98171808 26 111 C25.49714654 115.22396904 22.91139502 117.76549082 20.125 120.75 C19.63394775 121.27859619 19.14289551 121.80719238 18.63696289 122.35180664 C4.27170932 137.40864424 -14.1923648 144.69613726 -34.8125 145.3125 C-54.50181657 144.89634536 -72.4092097 137.65126957 -86.875 124.21875 C-102.44556259 107.96125082 -108.34808307 87.04770205 -108.15234375 64.97265625 C-107.25971846 41.69573519 -98.69126373 21.6380948 -81.5625 5.6875 C-58.62524822 -13.65717018 -25.43376299 -15.56799727 0 0 Z M-63.8125 33.8125 C-67.04442897 37.7375233 -69.73090888 42.03561414 -71 47 C-70.67 48.32 -70.34 49.64 -70 51 C-48.22 51 -26.44 51 -4 51 C-5.16994487 41.64044107 -7.68441796 34.28728738 -15 28 C-31.50414643 17.12783232 -50.3227711 19.46537308 -63.8125 33.8125 Z " fill="#16281B" transform="translate(922,247)"/>
<path d="M0 0 C18.35177652 18.23260914 17.97375556 62.40982336 18.29492188 86.11962891 C18.38479174 121.64967888 15.1084644 177.22651618 -10.6953125 204.23046875 C-17.6435741 208.81894339 -25.62150516 211.84233291 -34.0078125 210.41796875 C-41.69040936 208.31087747 -48.32996121 204.87641726 -52.51171875 197.9140625 C-56.65173682 189.8109502 -58.51005897 182.6818681 -56.33447266 173.61035156 C-55.39885367 170.72489247 -54.3792483 167.88542502 -53.3203125 165.04296875 C-38.29118916 122.21776208 -37.89801887 78.68078131 -46.71972656 34.4777832 C-48.72372158 24.17568256 -49.61081202 14.76679379 -44.0078125 5.41796875 C-38.91607508 -1.09314681 -33.05573105 -5.15544557 -25.1328125 -7.39453125 C-15.47865815 -7.97378051 -7.69136068 -6.06031338 0 0 Z " fill="#879B6C" transform="translate(481.0078125,165.58203125)"/>
<path d="M0 0 C12.54 0 25.08 0 38 0 C44.86735875 18.63997375 51.64976791 37.30830886 58.375 56 C58.76467957 57.08295349 59.15435913 58.16590698 59.55584717 59.28167725 C60.69124369 62.43765319 61.82614507 65.5938068 62.9609375 68.75 C63.31747406 69.7408963 63.67401062 70.7317926 64.04135132 71.75271606 C65.57657553 76.02276541 67.10743623 80.29405478 68.61425781 84.57421875 C68.84891754 85.23905273 69.08357727 85.90388672 69.3253479 86.58886719 C69.923282 88.2862502 70.51772075 89.98486345 71.11181641 91.68359375 C72 94 72 94 73 95 C75.14976366 88.87637334 77.2951611 82.75122817 79.4375 76.625 C79.76558655 75.68681427 80.0936731 74.74862854 80.43170166 73.78201294 C86.94134086 55.15160725 93.30657637 36.47328094 99.62670898 17.77783203 C99.9788295 16.73777512 100.33095001 15.6977182 100.69374084 14.62614441 C101.35644842 12.66834223 102.01791816 10.71012047 102.67796326 8.75141907 C102.82415352 8.31963097 102.82415352 8.31963097 103.56396484 6.13452148 C103.81850433 5.38041489 104.07304382 4.62630829 104.33529663 3.84934998 C105 2 105 2 106 0 C118.54 0 131.08 0 144 0 C143.28638075 4.28171552 142.63215767 7.39463576 141.14916992 11.32983398 C140.95812935 11.84074333 140.95812935 11.84074333 139.99134827 14.42625427 C139.57525803 15.5218013 139.15916779 16.61734833 138.73046875 17.74609375 C138.29830551 18.89654678 137.86614227 20.04699982 137.42088318 21.23231506 C136.25612967 24.32901104 135.08644632 27.4237505 133.9141922 30.51760864 C132.9407617 33.08937258 131.9714833 35.66269281 131.00219727 38.23602104 C125.48936942 52.87031407 119.9239618 67.48338977 114.23901367 82.05175781 C110.40340727 91.8975833 106.69435361 101.78798689 103 111.6875 C96.08426607 130.21859887 88.99868525 148.6826918 81.87695312 167.13549805 C81.0624906 169.2465784 80.24803723 171.35766229 79.43359375 173.46875 C79.04601898 174.4723909 78.65844421 175.4760318 78.25912476 176.51008606 C75.70124591 183.14489177 73.1822764 189.79311184 70.74034119 196.47155762 C69.10723251 200.89276749 69.10723251 200.89276749 68 202 C65.1883662 202.08861992 62.40141745 202.11522355 59.58984375 202.09765625 C58.74780899 202.0962413 57.90577423 202.09482635 57.03822327 202.09336853 C54.33794665 202.08775263 51.63775172 202.07519748 48.9375 202.0625 C47.11132932 202.05748705 45.28515734 202.05292379 43.45898438 202.04882812 C38.97262458 202.03777804 34.48632616 202.02050279 30 202 C32.70961 193.28212435 36.24825069 184.92043406 39.75 176.5 C40.35184856 175.04699345 40.95341267 173.59386906 41.5546875 172.140625 C41.85266235 171.42124756 42.15063721 170.70187012 42.4576416 169.96069336 C43.05777439 168.5102032 43.65665608 167.05919477 44.25427246 165.60766602 C45.81681795 161.8196641 47.40872059 158.04810494 49.04882812 154.29296875 C49.37836487 153.52625854 49.70790161 152.75954834 50.04742432 151.96960449 C50.6768271 150.50638089 51.31640067 149.04747594 51.9677124 147.59387207 C54.48087215 141.6992231 53.74163292 138.77816632 51.47216797 133.10400391 C50.81666455 131.55960996 50.15634634 130.01725405 49.4921875 128.4765625 C48.75318969 126.7372389 48.01443086 124.99781375 47.27587891 123.25830078 C46.88507141 122.34211975 46.49426392 121.42593872 46.09161377 120.48199463 C37.66474159 100.69302861 29.7231735 80.75742583 22.12939453 60.63623047 C20.10341272 55.26851033 18.0648432 49.90561467 16.02563477 44.54290771 C14.16167592 39.63895931 12.30144117 34.73360471 10.44232178 29.82781982 C9.52516726 27.40813358 8.60724372 24.98873867 7.6885376 22.56964111 C6.40485054 19.18702255 5.12561205 15.80275604 3.84765625 12.41796875 C3.45783066 11.39284683 3.06800507 10.36772491 2.66636658 9.3115387 C2.49006966 8.84324394 2.49006966 8.84324394 1.59790039 6.47338867 C1.28784561 5.65392258 0.97779083 4.83445648 0.65834045 3.99015808 C0 2 0 2 0 0 Z " fill="#17291C" transform="translate(1484,241)"/>
<path d="M0 0 C6.58311854 4.94152664 9.87960554 11.95652977 11.22265625 19.90234375 C11.5131043 24.35009037 11.50623056 28.78785535 11.49731445 33.24389648 C11.50166857 34.58021325 11.50685403 35.91652752 11.51280212 37.25283813 C11.52612741 40.86238614 11.52677812 44.47182903 11.52423882 48.08139682 C11.52316482 51.10311753 11.52806335 54.12481734 11.53284425 57.14653355 C11.54391679 64.2791016 11.54438938 71.41161698 11.53833008 78.54418945 C11.53228995 85.8844292 11.5446074 93.22447728 11.56590015 100.56468433 C11.58355319 106.88426696 11.58951173 113.20378877 11.5862624 119.52339512 C11.58445549 123.29013448 11.58702637 127.05673704 11.60097694 130.8234539 C11.61361143 134.36697782 11.61155864 137.91020422 11.59856606 141.45372391 C11.59509765 143.36156755 11.60633636 145.26942052 11.61813354 147.17723083 C11.54860902 158.61099598 9.45293935 165.43924585 1.4921875 173.734375 C-4.60332057 179.55710646 -10.66106932 181.9220603 -19.15234375 182.27734375 C-27.58032563 182.08134417 -33.86682176 178.63060164 -39.984375 172.96484375 C-45.62349129 166.47801717 -47.90087627 158.98293028 -47.90432739 150.51571655 C-47.90714722 149.44772827 -47.90996704 148.37973999 -47.91287231 147.27938843 C-47.91084808 146.11775177 -47.90882385 144.95611511 -47.90673828 143.75927734 C-47.9084906 142.5277594 -47.91024292 141.29624146 -47.91204834 140.02740479 C-47.91569289 136.65514738 -47.91484131 133.28295141 -47.91166925 129.91069746 C-47.90913104 126.3710977 -47.91148758 122.8315005 -47.91305542 119.29190063 C-47.91487427 113.34189383 -47.91247974 107.39189945 -47.90771484 101.44189453 C-47.90228778 94.58635754 -47.90402468 87.73085037 -47.90954125 80.87531412 C-47.91409844 74.97360143 -47.91470977 69.07189766 -47.91210258 63.17018378 C-47.91055216 59.65265963 -47.91031159 56.13514942 -47.91363907 52.61762619 C-47.91709859 48.68566507 -47.91228568 44.75373652 -47.90673828 40.82177734 C-47.90876251 39.67228607 -47.91078674 38.5227948 -47.91287231 37.33847046 C-47.87896842 24.2941909 -47.79061581 12.57812488 -38.5546875 2.47265625 C-27.38988368 -7.39163196 -12.45142376 -7.68978039 0 0 Z " fill="#839769" transform="translate(375.77734375,228.09765625)"/>
<path d="M0 0 C1.47583954 0.00025104 2.95168496 0.00581025 4.42749023 0.01586914 C5.11452026 0.01687622 5.80155029 0.0178833 6.50939941 0.0189209 C9.08497783 0.02416763 11.66053252 0.0381288 14.23608398 0.05102539 C19.99045898 0.07165039 25.74483398 0.09227539 31.67358398 0.11352539 C31.67358398 13.64352539 31.67358398 27.17352539 31.67358398 41.11352539 C42.23358398 41.11352539 52.79358398 41.11352539 63.67358398 41.11352539 C63.69420898 46.37290039 63.71483398 51.63227539 63.73608398 57.05102539 C63.74518799 58.71254639 63.75429199 60.37406738 63.76367188 62.0859375 C63.76616943 63.38281494 63.76866699 64.67969238 63.77124023 66.01586914 C63.7763562 66.70169067 63.78147217 67.38751221 63.78674316 68.09411621 C63.78705452 69.7676777 63.73581236 71.44112119 63.67358398 73.11352539 C62.67358398 74.11352539 62.67358398 74.11352539 59.71435547 74.22705078 C58.42086182 74.22181396 57.12736816 74.21657715 55.79467773 74.21118164 C55.45134651 74.21047417 55.45134651 74.21047417 53.71388245 74.20689392 C51.51290597 74.20128018 49.3120299 74.18872546 47.11108398 74.17602539 C45.62215316 74.17101216 44.13322074 74.16644894 42.64428711 74.16235352 C38.98735324 74.15130632 35.3304784 74.13403252 31.67358398 74.11352539 C31.71169206 83.51090249 31.7711277 92.90783605 31.85748672 102.30489445 C31.89692716 106.66877263 31.92913235 111.03245007 31.94458008 115.39648438 C31.95976948 119.6112884 31.99425496 123.82554042 32.04189301 128.04009819 C32.05668338 129.64472075 32.06462365 131.24942213 32.06546783 132.85411263 C32.06784646 135.10922613 32.09499432 137.36282508 32.12768555 139.61767578 C32.13656799 140.89896866 32.14545044 142.18026154 32.15460205 143.50038147 C32.80115752 148.00169034 34.13127403 150.36294516 36.67358398 154.11352539 C40.22126618 156.2293816 43.3449386 156.36037076 47.42358398 156.30102539 C48.38780273 156.29458008 49.35202148 156.28813477 50.34545898 156.28149414 C54.467988 156.07343223 58.5710545 155.569362 62.67358398 155.11352539 C62.67358398 165.67352539 62.67358398 176.23352539 62.67358398 187.11352539 C43.91174858 190.68720833 26.55706464 192.34471035 9.67358398 181.11352539 C0.21786521 172.8823997 -2.97918669 163.2641943 -4.32641602 151.11352539 C-4.65432609 145.11458663 -4.56072291 139.10314698 -4.52172852 133.09790039 C-4.51798979 131.38869392 -4.51514689 129.67948528 -4.51315308 127.97027588 C-4.50558422 123.51188039 -4.48599524 119.05361904 -4.46374512 114.59527588 C-4.44313977 110.02976292 -4.43412022 105.46422788 -4.42407227 100.89868164 C-4.4027417 91.97022836 -4.36761614 83.04190911 -4.32641602 74.11352539 C-11.58641602 74.11352539 -18.84641602 74.11352539 -26.32641602 74.11352539 C-26.32641602 63.22352539 -26.32641602 52.33352539 -26.32641602 41.11352539 C-19.06641602 41.11352539 -11.80641602 41.11352539 -4.32641602 41.11352539 C-4.33801758 38.23762695 -4.34961914 35.36172852 -4.36157227 32.39868164 C-4.36936226 29.62532664 -4.37543935 26.85197285 -4.38134766 24.07861328 C-4.38638858 22.14533954 -4.3932212 20.21206963 -4.40185547 18.27880859 C-4.41393166 15.50625667 -4.41964658 12.73375498 -4.42407227 9.96118164 C-4.42923355 9.09139175 -4.43439484 8.22160187 -4.43971252 7.32545471 C-4.43990787 5.25446725 -4.38849769 3.18358215 -4.32641602 1.11352539 C-3.32641602 0.11352539 -3.32641602 0.11352539 0 0 Z " fill="#182A1D" transform="translate(986.326416015625,199.886474609375)"/>
<path d="M0 0 C8.6337877 8.87361514 10.55113352 17.41774101 10.54052734 29.41333008 C10.54724457 30.51019638 10.55396179 31.60706268 10.56088257 32.73716736 C10.57983259 36.35216846 10.58378527 39.96698361 10.5859375 43.58203125 C10.59236742 46.10397924 10.59909593 48.62592649 10.60610962 51.14787292 C10.61807484 56.4310323 10.62187709 61.71414478 10.62060547 66.99731445 C10.61940505 73.08279275 10.64049496 79.16791583 10.6720928 85.2533043 C10.70151425 91.13141006 10.70857839 97.00937653 10.70738602 102.88754845 C10.7097396 105.37732074 10.71854936 107.86709591 10.73405075 110.35682106 C10.7537413 113.84600568 10.74785975 117.3342858 10.73583984 120.82348633 C10.74707886 121.84252045 10.75831787 122.86155457 10.76989746 123.91146851 C10.70163846 131.74588918 9.01262768 138.47035814 4.390625 144.8984375 C-3.29470776 152.1709218 -10.46444061 155.69109773 -21.1015625 155.51953125 C-29.38778217 154.87178841 -35.9290543 151.16735412 -41.75 145.3125 C-47.80621704 136.97230816 -49.05009357 128.71529939 -49.0246582 118.6706543 C-49.02976913 117.62255585 -49.03488007 116.5744574 -49.04014587 115.49459839 C-49.05400568 112.04191317 -49.05308759 108.58942842 -49.05078125 105.13671875 C-49.05467053 102.72687201 -49.05900568 100.31702596 -49.06376648 97.90718079 C-49.07122122 92.85940325 -49.07094306 87.81169566 -49.06567383 82.76391602 C-49.05988434 76.31137711 -49.07680156 69.85912573 -49.1000185 63.40663433 C-49.1147878 58.42991984 -49.1156231 53.45327405 -49.11250877 48.47654152 C-49.11302051 46.09842167 -49.11823039 43.72029782 -49.12832069 41.34219933 C-49.14072768 38.00878892 -49.13386719 34.67593159 -49.12231445 31.3425293 C-49.12995819 30.37024887 -49.13760193 29.39796844 -49.14547729 28.39622498 C-49.07267949 18.84001114 -47.02809246 10.77121096 -40.8515625 3.359375 C-28.99629415 -8.18739194 -13.72276884 -8.42078997 0 0 Z " fill="#7A8F60" transform="translate(278.75,278.6875)"/>
<path d="M0 0 C11.55 0 23.1 0 35 0 C36.78153382 1.78153382 36.12254859 4.17454462 36.12908131 6.54691607 C36.12762489 6.9481728 36.12762489 6.9481728 36.12025452 8.97877502 C36.12110894 9.82492479 36.12196337 10.67107455 36.12284368 11.54286522 C36.12450108 14.40042399 36.11897288 17.25792508 36.11352539 20.11547852 C36.11324355 22.15500894 36.11340119 24.19453946 36.1139679 26.23406982 C36.11425599 31.78962736 36.10835738 37.34516352 36.10139394 42.90071607 C36.09516234 48.69967368 36.09455676 54.49863172 36.09336853 60.29759216 C36.09025464 71.28713827 36.08204048 82.27667448 36.07201904 93.26621622 C36.06085969 105.77385985 36.0553479 118.28150394 36.05032361 130.78915131 C36.03985791 156.52610655 36.02205703 182.26305231 36 208 C24.12 208 12.24 208 0 208 C0 139.36 0 70.72 0 0 Z " fill="#192B1E" transform="translate(1378,178)"/>
<path d="M0 0 C11.22 0 22.44 0 34 0 C35.75919535 1.75919535 35.12509401 4.07974054 35.13374341 6.42357522 C35.13151268 7.20779641 35.12928196 7.99201759 35.12698364 8.80000305 C35.12854363 9.62699634 35.13010362 10.45398963 35.13171089 11.30604333 C35.13572451 14.09898475 35.13252981 16.89187255 35.12939453 19.68481445 C35.13074844 21.67844678 35.13252832 23.67207885 35.13470459 25.66571045 C35.13928101 31.09757096 35.13748828 36.52941257 35.1343255 41.96127343 C35.13180192 47.63557504 35.13413953 53.30987497 35.13571167 58.98417664 C35.13753382 68.51834403 35.13512634 78.0525037 35.13037109 87.58666992 C35.12493306 98.61733252 35.12668761 109.64797661 35.1321975 120.67863876 C35.13673292 130.1359696 35.13737693 139.59329487 35.13475883 149.05062646 C35.13319783 154.70471162 35.13299739 160.35878809 35.13629532 166.0128727 C35.13918008 171.33071382 35.13718713 176.64853108 35.13140106 181.96636963 C35.13007652 183.92072192 35.13046241 185.87507622 35.13266373 187.82942772 C35.13538731 190.49266112 35.13197913 193.15581755 35.12698364 195.81904602 C35.12921436 196.59657504 35.13144509 197.37410406 35.13374341 198.17519456 C35.12089638 201.69505197 34.86111039 204.55555844 34 208 C22.78 208 11.56 208 0 208 C0 139.36 0 70.72 0 0 Z " fill="#18291D" transform="translate(1438,178)"/>
<path d="M0 0 C11.88 0 23.76 0 36 0 C36 47.85 36 95.7 36 145 C24.12 145 12.24 145 0 145 C0 97.15 0 49.3 0 0 Z " fill="#17291D" transform="translate(1318,241)"/>
<path d="M0 0 C7.57362435 4.01780072 12.32269715 11.1040274 15.11328125 19.12109375 C15.39416504 21.71185303 15.39416504 21.71185303 15.43554688 24.50292969 C15.45476196 25.55462341 15.47397705 26.60631714 15.49377441 27.68988037 C15.50227417 28.81702454 15.51077393 29.9441687 15.51953125 31.10546875 C15.5309314 32.27563538 15.54233154 33.445802 15.55407715 34.65142822 C15.57295145 37.12598061 15.58603492 39.60058297 15.59375 42.07519531 C15.61314185 45.8440005 15.6751971 49.61061374 15.73828125 53.37890625 C15.75134468 55.78774752 15.76184431 58.19660433 15.76953125 60.60546875 C15.79422485 61.72451599 15.81891846 62.84356323 15.84436035 63.996521 C15.80212597 71.48547038 14.33516641 76.59169294 9.11328125 82.12109375 C5.57964951 84.63040746 2.34411434 85.86467019 -1.88671875 86.74609375 C-9.48469179 85.1631827 -14.51869411 78.56480825 -19.40234375 72.95703125 C-21.66946448 70.36909155 -23.98850729 67.84845262 -26.33959961 65.33764648 C-37.78869282 53.09721623 -44.43335799 45.47612552 -43.97998047 28.18408203 C-43.51787106 17.96202842 -40.16704505 10.73746273 -32.82421875 3.6953125 C-23.23915835 -4.09254908 -11.11097364 -5.12132597 0 0 Z " fill="#809466" transform="translate(175.88671875,320.87890625)"/>
<path d="M0 0 C10.67420075 -0.02255088 21.3483858 -0.040915 32.02260494 -0.05181217 C36.97853922 -0.05704103 41.93445642 -0.06413874 46.89038086 -0.07543945 C51.66898836 -0.08626822 56.44757938 -0.09227681 61.2261982 -0.09487724 C63.05353619 -0.09673151 64.88087324 -0.10035216 66.70820427 -0.10573006 C69.25853329 -0.11294036 71.80879337 -0.11399095 74.35913086 -0.11352539 C75.12229614 -0.11712067 75.88546143 -0.12071594 76.67175293 -0.12442017 C81.88594784 -0.11405216 81.88594784 -0.11405216 83 1 C83.10012401 3.20650656 83.1308118 5.41622386 83.1328125 7.625 C83.13376923 8.28709473 83.13472595 8.94918945 83.13571167 9.63134766 C83.13639326 11.03352961 83.13454042 12.4357147 83.13037109 13.83789062 C83.12502246 15.99095713 83.1303167 18.14381502 83.13671875 20.296875 C83.13605796 21.65625046 83.13477679 23.0156258 83.1328125 24.375 C83.13168457 25.62023437 83.13055664 26.86546875 83.12939453 28.1484375 C83 31 83 31 82 32 C79.44410112 32.09506052 76.91532028 32.12556761 74.35913086 32.11352539 C73.95916145 32.1135984 73.95916145 32.1135984 71.93507385 32.1139679 C69.27830335 32.11326855 66.62160207 32.10547518 63.96484375 32.09765625 C62.12781309 32.09579215 60.29078194 32.09436821 58.45375061 32.09336853 C53.60890338 32.08954275 48.76408592 32.07971196 43.91925049 32.06866455 C38.97937422 32.05845172 34.03949315 32.05387119 29.09960938 32.04882812 C19.39972437 32.03808974 9.69986931 32.02049246 0 32 C0 21.44 0 10.88 0 0 Z " fill="#0F2114" transform="translate(1068,295)"/>
<path d="M0 0 C5.30617672 2.96678017 9.94320464 7.70461393 11.875 13.5 C12.50780283 21.1766245 12.86711407 27.38466026 7.875 33.5 C2.20389529 38.7897506 -3.12964044 41.62683681 -11.0625 41.375 C-16.68870131 40.435479 -21.40151253 38.22348747 -25.4375 34.1875 C-29.50953908 27.70240072 -31.29539744 22.0040312 -29.69140625 14.4609375 C-27.53087601 7.50966629 -22.96206079 3.12868305 -16.75 -0.4375 C-10.85736869 -2.16465056 -5.71958193 -2.48917976 0 0 Z " fill="#1B2D21" transform="translate(1345.125,178.5)"/>
<path d="M0 0 C10.67420075 -0.02255088 21.3483858 -0.040915 32.02260494 -0.05181217 C36.97853922 -0.05704103 41.93445642 -0.06413874 46.89038086 -0.07543945 C51.66898836 -0.08626822 56.44757938 -0.09227681 61.2261982 -0.09487724 C63.05353619 -0.09673151 64.88087324 -0.10035216 66.70820427 -0.10573006 C69.25853329 -0.11294036 71.80879337 -0.11399095 74.35913086 -0.11352539 C75.12229614 -0.11712067 75.88546143 -0.12071594 76.67175293 -0.12442017 C81.88594784 -0.11405216 81.88594784 -0.11405216 83 1 C83.10012401 3.20650656 83.1308118 5.41622386 83.1328125 7.625 C83.13376923 8.28709473 83.13472595 8.94918945 83.13571167 9.63134766 C83.13639326 11.03352961 83.13454042 12.4357147 83.13037109 13.83789062 C83.12502246 15.99095713 83.1303167 18.14381502 83.13671875 20.296875 C83.13605796 21.65625046 83.13477679 23.0156258 83.1328125 24.375 C83.13168457 25.62023437 83.13055664 26.86546875 83.12939453 28.1484375 C83 31 83 31 82 32 C79.44410112 32.09506052 76.91532028 32.12556761 74.35913086 32.11352539 C73.95916145 32.1135984 73.95916145 32.1135984 71.93507385 32.1139679 C69.27830335 32.11326855 66.62160207 32.10547518 63.96484375 32.09765625 C62.12781309 32.09579215 60.29078194 32.09436821 58.45375061 32.09336853 C53.60890338 32.08954275 48.76408592 32.07971196 43.91925049 32.06866455 C38.97937422 32.05845172 34.03949315 32.05387119 29.09960938 32.04882812 C19.39972437 32.03808974 9.69986931 32.02049246 0 32 C0 21.44 0 10.88 0 0 Z M1 1 C1 10.57 1 20.14 1 30 C27.36342934 30.09849351 53.65480956 30.05380762 80 29 C80 20.09 80 11.18 80 2 C53.93 1.67 27.86 1.34 1 1 Z " fill="#5C6760" transform="translate(1068,295)"/>
<path d="M0 0 C0.44703781 0.00179764 0.44703781 0.00179764 2.70932007 0.01089478 C3.64580887 0.01074875 4.58229767 0.01060272 5.54716492 0.01045227 C8.65845007 0.01115179 11.76967617 0.01894602 14.88095093 0.02676392 C17.0318651 0.02862796 19.18277971 0.03005192 21.33369446 0.03105164 C27.00711225 0.03487792 32.68050463 0.04470914 38.35391235 0.05575562 C44.13831234 0.06596736 49.92271641 0.07054875 55.7071228 0.07559204 C67.06585975 0.08633132 78.42457113 0.103929 89.78329468 0.12442017 C89.78329468 8.37442017 89.78329468 16.62442017 89.78329468 25.12442017 C89.45329468 25.12442017 89.12329468 25.12442017 88.78329468 25.12442017 C88.78329468 17.53442017 88.78329468 9.94442017 88.78329468 2.12442017 C57.76329468 2.12442017 26.74329468 2.12442017 -5.21670532 2.12442017 C-5.21670532 12.35442017 -5.21670532 22.58442017 -5.21670532 33.12442017 C12.93329468 33.45442017 31.08329468 33.78442017 49.78329468 34.12442017 C49.78329468 35.77442017 49.78329468 37.42442017 49.78329468 39.12442017 C49.61829468 38.46442017 49.61829468 38.46442017 48.78329468 35.12442017 C30.30329468 35.12442017 11.82329468 35.12442017 -7.21670532 35.12442017 C-7.23733032 29.53504517 -7.25795532 23.94567017 -7.27920532 18.18692017 C-7.28830933 16.42098511 -7.29741333 14.65505005 -7.30679321 12.83560181 C-7.30971246 11.44359412 -7.312261 10.05158558 -7.31436157 8.65957642 C-7.31947754 7.93057129 -7.32459351 7.20156616 -7.3298645 6.45046997 C-7.33017544 4.6747194 -7.27899047 2.89907808 -7.21670532 1.12442017 C-5.31693444 -0.77535072 -2.52731467 0.00429374 0 0 Z " fill="#6F7872" transform="translate(712.2167053222656,271.8755798339844)"/>
<path d="M0 0 C0.66 0.33 1.32 0.66 2 1 C-1 7 -1 7 -2.0546875 9.0390625 C-2.40789062 9.72742188 -2.76109375 10.41578125 -3.125 11.125 C-3.45757812 11.76695312 -3.79015625 12.40890625 -4.1328125 13.0703125 C-5.73992387 16.64649727 -6.11834952 19.82837153 -6.0625 23.73046875 C-6.05476562 24.61541016 -6.04703125 25.50035156 -6.0390625 26.41210938 C-6.03261719 26.87004883 -6.03261719 26.87004883 -6 29.1875 C-5.97461063 31.01426528 -5.95353691 32.84109743 -5.9375 34.66796875 C-5.92589844 35.47516357 -5.91429687 36.2823584 -5.90234375 37.11401367 C-6 39 -6 39 -7 40 C-7.12527187 42.89065236 -7.18610202 45.75856787 -7.20532227 48.65063477 C-7.21522186 49.55786285 -7.22512146 50.46509094 -7.23532104 51.39981079 C-7.26703595 54.41364894 -7.29173278 57.42750289 -7.31640625 60.44140625 C-7.33696716 62.52506431 -7.35796339 64.60871811 -7.37937927 66.69236755 C-7.43468909 72.18818731 -7.48405894 77.68404526 -7.53222656 83.17993164 C-7.5823767 88.78340064 -7.63809655 94.38681388 -7.69335938 99.99023438 C-7.80104986 110.993442 -7.90247048 121.99669795 -8 133 C-8.33 133 -8.66 133 -9 133 C-9.72913052 129.7226285 -10.12774662 126.68333191 -10.14044189 123.32795715 C-10.14615204 122.41839264 -10.15186218 121.50882812 -10.15774536 120.57170105 C-10.15886322 119.58615738 -10.15998108 118.60061371 -10.16113281 117.58520508 C-10.16609772 116.53739868 -10.17106262 115.48959229 -10.17617798 114.41003418 C-10.1907721 110.94652649 -10.19759753 107.48306463 -10.203125 104.01953125 C-10.2088793 101.60682677 -10.214637 99.19412231 -10.22039795 96.78141785 C-10.23090053 91.72170804 -10.23674787 86.66201409 -10.24023438 81.60229492 C-10.24571338 75.13402377 -10.26973212 68.66596372 -10.29820633 62.19775867 C-10.31687542 57.21247251 -10.32204062 52.22723673 -10.32357025 47.24191856 C-10.32658833 44.8582106 -10.33458816 42.47450335 -10.34775543 40.09082985 C-10.36490274 36.74764812 -10.36291415 33.40497603 -10.35644531 30.06176758 C-10.3656601 29.08634506 -10.37487488 28.11092255 -10.3843689 27.10594177 C-10.33306614 18.59719805 -8.98560134 10.51145817 -3.3125 3.875 C-3.00119141 3.50246094 -3.00119141 3.50246094 -1.42578125 1.6171875 C-0.95527344 1.08351563 -0.48476562 0.54984375 0 0 Z " fill="#AAB999" transform="translate(240,280)"/>
<path d="M0 0 C4.70542256 4.88601447 7.55437557 10.63535657 8.95703125 17.27734375 C8.55078125 19.60546875 8.55078125 19.60546875 7.95703125 21.27734375 C7.95703125 20.61734375 7.95703125 19.95734375 7.95703125 19.27734375 C7.29703125 19.27734375 6.63703125 19.27734375 5.95703125 19.27734375 C5.83328125 18.65988281 5.70953125 18.04242188 5.58203125 17.40625 C3.53979248 9.02030707 -0.84339684 3.07705836 -8.04296875 -1.72265625 C-8.04296875 -2.38265625 -8.04296875 -3.04265625 -8.04296875 -3.72265625 C-8.82671875 -3.53703125 -9.61046875 -3.35140625 -10.41796875 -3.16015625 C-13.04296875 -2.72265625 -13.04296875 -2.72265625 -15.04296875 -3.72265625 C-22.85933824 -4.56591603 -28.94331418 -3.03220279 -35.23046875 1.65234375 C-36.15859375 2.51859375 -37.08671875 3.38484375 -38.04296875 4.27734375 C-38.95046875 5.06109375 -39.85796875 5.84484375 -40.79296875 6.65234375 C-45.17647848 11.76643843 -45.30140419 17.6391805 -45.23046875 24.15234375 C-45.22402344 25.46976563 -45.21757812 26.7871875 -45.2109375 28.14453125 C-45.04296875 31.27734375 -45.04296875 31.27734375 -44.04296875 32.27734375 C-43.97070373 34.13021877 -43.95915655 35.98568253 -43.98046875 37.83984375 C-43.98949219 38.85175781 -43.99851562 39.86367187 -44.0078125 40.90625 C-44.01941406 41.68871094 -44.03101563 42.47117188 -44.04296875 43.27734375 C-44.37296875 43.27734375 -44.70296875 43.27734375 -45.04296875 43.27734375 C-50.75634696 16.4788793 -50.75634696 16.4788793 -44.04296875 5.27734375 C-38.95123133 -1.23377181 -33.0908873 -5.29607057 -25.16796875 -7.53515625 C-15.57637154 -8.11065208 -7.48683678 -6.31299239 0 0 Z " fill="#B0C09B" transform="translate(481.04296875,165.72265625)"/>
<path d="M0 0 C0.33 0 0.66 0 1 0 C1.86953577 21.71296998 2.13278639 43.38574286 2.06866455 65.11437988 C2.05816357 69.07169017 2.0538116 73.02900773 2.04882812 76.98632812 C2.03831853 84.65757065 2.02141131 92.32877929 2 100 C1.505 100.165 1.505 100.165 -1 101 C-1.14138065 67.31877895 -0.7949703 33.67206658 0 0 Z " fill="#748A58" transform="translate(384,289)"/>
<path d="M0 0 C0.33 0 0.66 0 1 0 C1.14586643 5.86336483 1.28806661 11.72680465 1.42724609 17.59033203 C1.47480495 19.57407884 1.52326935 21.5578042 1.57275391 23.54150391 C1.84477864 34.47245716 2.0537071 45.40141302 2.09375 56.3359375 C2.1002356 57.27797028 2.10672119 58.22000305 2.11340332 59.19058228 C2.11400757 60.05629852 2.11461182 60.92201477 2.11523438 61.81396484 C2.11728882 62.57639496 2.11934326 63.33882507 2.12145996 64.12435913 C2 66 2 66 1 68 C1.66 68 2.32 68 3 68 C3 70.31 3 72.62 3 75 C2.01 74.67 1.02 74.34 0 74 C-1.14920211 70.55239367 -1.12704927 67.88671732 -1.12939453 64.24951172 C-1.13114685 63.56792999 -1.13289917 62.88634827 -1.13470459 62.18411255 C-1.13910391 59.9326116 -1.13619253 57.68118924 -1.1328125 55.4296875 C-1.13348593 53.86695338 -1.13445629 52.30421936 -1.13571167 50.7414856 C-1.13718591 47.46810915 -1.13504229 44.19476 -1.13037109 40.92138672 C-1.12466453 36.71666742 -1.12796039 32.51201182 -1.13394356 28.30729485 C-1.13754852 25.08179235 -1.13641105 21.85630509 -1.13381577 18.63080215 C-1.1331468 17.07978432 -1.13397385 15.52876511 -1.13629532 13.97774887 C-1.1388218 11.81569475 -1.13498179 9.65374549 -1.12939453 7.49169922 C-1.12859894 6.25942596 -1.12780334 5.02715271 -1.12698364 3.75753784 C-1 1 -1 1 0 0 Z " fill="#748A5C" transform="translate(330,318)"/>
<path d="M0 0 C8.25 8.47916667 8.25 8.47916667 8.25 13.3125 C7.26 12.9825 6.27 12.6525 5.25 12.3125 C5.25 10.9925 5.25 9.6725 5.25 8.3125 C4.59 8.3125 3.93 8.3125 3.25 8.3125 C3.0025 7.508125 2.755 6.70375 2.5 5.875 C1.25 3.3125 1.25 3.3125 -0.625 2.625 C-0.975625 2.5734375 -0.975625 2.5734375 -2.75 2.3125 C-4.08333333 1.64583333 -5.41666667 0.97916667 -6.75 0.3125 C-13.86689088 -2.50115453 -19.90739231 -3.71637715 -27.125 -0.8125 C-28.66986905 -0.1111785 -30.21199725 0.59624601 -31.75 1.3125 C-32.74 1.6425 -33.73 1.9725 -34.75 2.3125 C-35.41 1.6525 -36.07 0.9925 -36.75 0.3125 C-35.50443908 -0.50678886 -34.25333365 -1.31765186 -33 -2.125 C-32.65195313 -2.35123047 -32.65195313 -2.35123047 -30.890625 -3.49609375 C-20.98626618 -9.00855623 -9.01882558 -5.53427933 0 0 Z " fill="#A8B994" transform="translate(278.75,278.6875)"/>
<path d="M0 0 C33.99 0 67.98 0 103 0 C103 0.33 103 0.66 103 1 C69.34 1 35.68 1 1 1 C1.99 4.96 2.98 8.92 4 13 C3.34 13 2.68 13 2 13 C2 12.01 2 11.02 2 10 C1.01 10 0.02 10 -1 10 C-0.67 6.7 -0.34 3.4 0 0 Z " fill="#66706B" transform="translate(849,325)"/>
<path d="M0 0 C0 0.33 0 0.66 0 1 C2.31 1.33 4.62 1.66 7 2 C7 2.33 7 2.66 7 3 C0.82062297 3.91114284 -5.16547861 4.13262362 -11.40625 4.09765625 C-12.3715564 4.0962413 -13.33686279 4.09482635 -14.3314209 4.09336853 C-17.38764665 4.0878108 -20.44379673 4.0752663 -23.5 4.0625 C-25.58333227 4.05747953 -27.6666657 4.05291758 -29.75 4.04882812 C-34.83336209 4.03785524 -39.91666826 4.02062011 -45 4 C-45 3.67 -45 3.34 -45 3 C-43.185 2.835 -43.185 2.835 -34 2 C-34 1.67 -34 1.34 -34 1 C-22.64906646 0.26429134 -11.37473908 -0.13947228 0 0 Z " fill="#606B64" transform="translate(287,521)"/>
<path d="M0 0 C0.66 0.33 1.32 0.66 2 1 C1.21753906 1.74765625 0.43507813 2.4953125 -0.37109375 3.265625 C-1.3936233 4.26001154 -2.4157371 5.25482572 -3.4375 6.25 C-3.95376953 6.74113281 -4.47003906 7.23226562 -5.00195312 7.73828125 C-7.74826418 10.43074307 -9.28055281 12.2367378 -10 16 C-13.34679088 20.10251785 -17.60739039 24.0715936 -22 27 C-22.99 26.67 -23.98 26.34 -25 26 C-17.11534028 16.88883765 -8.56607352 8.46355193 0 0 Z " fill="#3C4A41" transform="translate(92,66)"/>
<path d="M0 0 C0 0.33 0 0.66 0 1 C13.53 1 27.06 1 41 1 C41 1.33 41 1.66 41 2 C40.5373877 2.00729126 40.5373877 2.00729126 38.19628906 2.04418945 C5.87870799 2.61225625 5.87870799 2.61225625 -7.26074219 5.0715332 C-13.73764168 6.28103076 -13.73764168 6.28103076 -17 5 C-16.67 4.01 -16.34 3.02 -16 2 C-13.83125748 2.50603992 -12.00032373 2.99983813 -10 4 C-10.33 3.01 -10.66 2.02 -11 1 C-7.26562152 0.12132271 -3.83225427 -0.08912219 0 0 Z " fill="#747E78" transform="translate(239,46)"/>
<path d="M0 0 C1.04027344 -0.01417969 2.08054688 -0.02835937 3.15234375 -0.04296875 C6.01296613 0.18357718 7.63920151 0.71016381 10.0625 2.1875 C8.0825 2.5175 6.1025 2.8475 4.0625 3.1875 C4.0625 2.5275 4.0625 1.8675 4.0625 1.1875 C2.14325213 1.41684409 0.2270594 1.67184343 -1.6875 1.9375 C-2.75484375 2.07671875 -3.8221875 2.2159375 -4.921875 2.359375 C-8.41303211 3.31808654 -9.57775693 4.5098126 -11.9375 7.1875 C-13.23034519 8.19247509 -14.54286369 9.17272038 -15.875 10.125 C-18.3900522 11.96562479 -20.66036234 13.8081837 -22.8125 16.0625 C-23.51375 16.76375 -24.215 17.465 -24.9375 18.1875 C-25.5975 18.1875 -26.2575 18.1875 -26.9375 18.1875 C-24.50458467 11.12221557 -19.24672962 6.1037041 -12.625 2.75 C-8.31582874 0.80082111 -4.74775416 0.02934335 0 0 Z " fill="#A7B894" transform="translate(161.9375,317.8125)"/>
<path d="M0 0 C0.33 0 0.66 0 1 0 C1.87266212 5.23899228 2.13410177 10.25322853 2.09765625 15.55859375 C2.0962413 16.34774673 2.09482635 17.13689972 2.09336853 17.94996643 C2.08781555 20.44585115 2.07527208 22.94164285 2.0625 25.4375 C2.05747891 27.13997265 2.05291707 28.84244673 2.04882812 30.54492188 C2.03786158 34.69664988 2.02062991 38.84830922 2 43 C1.505 43.165 1.505 43.165 -1 44 C-1.12375296 29.29434109 -0.90933848 14.6793211 0 0 Z " fill="#68814E" transform="translate(384,346)"/>
<path d="M0 0 C0.99 1.32 1.98 2.64 3 4 C-0.35206538 4.67753075 -3.70693575 5.3400352 -7.0625 6 C-7.53397461 6.09539063 -7.53397461 6.09539063 -9.91992188 6.578125 C-23.12391493 9.15451389 -23.12391493 9.15451389 -27.4375 6.5 C-27.953125 6.005 -28.46875 5.51 -29 5 C-26.81347261 4.66034526 -24.62571975 4.32857523 -22.4375 4 C-21.21933594 3.814375 -20.00117188 3.62875 -18.74609375 3.4375 C-13.73800665 2.85261392 -8.85947097 2.44496929 -4 4 C-4 3.01 -4 2.02 -4 1 C-2.68 0.67 -1.36 0.34 0 0 Z " fill="#4B5A50" transform="translate(319,515)"/>
<path d="M0 0 C0.33 0 0.66 0 1 0 C1 22.77 1 45.54 1 69 C1.99 69 2.98 69 4 69 C3.67 70.32 3.34 71.64 3 73 C2.01 72.67 1.02 72.34 0 72 C0 48.24 0 24.48 0 0 Z " fill="#657D49" transform="translate(232,341)"/>
<path d="M0 0 C0.66 0.33 0.66 0.33 4 2 C3.67 2.99 3.34 3.98 3 5 C2.93985627 6.73424272 2.9411836 8.47092163 2.97827148 10.20581055 C2.99836777 11.26668381 3.01846405 12.32755707 3.03916931 13.420578 C3.06620438 14.56440445 3.09323944 15.7082309 3.12109375 16.88671875 C3.14470474 18.05886429 3.16831573 19.23100983 3.19264221 20.43867493 C3.26931389 24.18840541 3.35332356 27.9379312 3.4375 31.6875 C3.49071715 34.22720347 3.54345757 36.76691698 3.59570312 39.30664062 C3.72493384 45.53788751 3.86019219 51.76898194 4 58 C3.505 58.165 3.505 58.165 1 59 C1.00261841 58.3905957 1.00261841 58.3905957 1.01586914 55.30664062 C1.03421531 50.70687621 1.04553818 46.1071149 1.05493164 41.50732422 C1.05990514 39.53108167 1.06668631 37.5548427 1.07543945 35.57861328 C1.12678652 23.67213411 0.94912034 11.87309948 0 0 Z " fill="#AEBD9F" transform="translate(439,223)"/>
<path d="M0 0 C2.58482579 1.00250057 3.7872047 1.64399008 5.23046875 4.05859375 C5.54628906 4.84363281 5.86210938 5.62867188 6.1875 6.4375 C6.34927734 6.82873047 6.34927734 6.82873047 7.16796875 8.80859375 C7.81933396 10.52416128 8.41970278 12.25910835 9 14 C10.05920745 16.0363058 11.15283989 18.0506878 12.2578125 20.0625 C13 22 13 22 12 25 C11.67 24.34 11.34 23.68 11 23 C10.34 23.33 9.68 23.66 9 24 C7.49115787 20.56631406 5.99446599 17.12746451 4.5 13.6875 C4.07074219 12.71103516 3.64148437 11.73457031 3.19921875 10.72851562 C2.79316406 9.79072266 2.38710937 8.85292969 1.96875 7.88671875 C1.59169922 7.02264404 1.21464844 6.15856934 0.82617188 5.26831055 C0 3 0 3 0 0 Z " fill="#46554B" transform="translate(1526,349)"/>
<path d="M0 0 C0.85305168 2.90669462 1.07289715 5.31048873 0.87890625 8.328125 C0.83056641 9.12734375 0.78222656 9.9265625 0.73242188 10.75 C0.67634766 11.575 0.62027344 12.4 0.5625 13.25 C0.51029297 14.09046875 0.45808594 14.9309375 0.40429688 15.796875 C0.27504311 17.8649352 0.13825726 19.9325222 0 22 C0.66 22 1.32 22 2 22 C2.33 25.63 2.66 29.26 3 33 C-1 30 -1 30 -2 27 C-2.12391806 24.29973894 -2.18983412 21.63778679 -2.1875 18.9375 C-2.18782227 18.55791138 -2.18782227 18.55791138 -2.18945312 16.63696289 C-2.1358424 10.91462713 -1.52308404 5.5347786 0 0 Z " fill="#A6B494" transform="translate(134,337)"/>
</svg>
